<svg width="1000" height="1000" viewBox="0 0 1000 1000" fill="none" xmlns="http://www.w3.org/2000/svg">
<circle cx="500" cy="500" r="475" fill="#FDFDFD"/>
<path d="M975 500C975 762.335 762.335 975 500 975C237.665 975 25 762.335 25 500C25 237.665 237.665 25 500 25C762.335 25 975 237.665 975 500ZM120 500C120 709.868 290.132 880 500 880C709.868 880 880 709.868 880 500C880 290.132 709.868 120 500 120C290.132 120 120 290.132 120 500Z" fill="#112233"/>
<path d="M300 205C300 94.5431 389.543 5 500 5H690C695.523 5 700 9.47715 700 15V205C700 315.457 610.457 405 500 405H310C304.477 405 300 400.523 300 395V205Z" fill="#112233"/>
<path d="M300 795C300 684.543 389.543 595 500 595H690C695.523 595 700 599.477 700 605V795C700 905.457 610.457 995 500 995H310C304.477 995 300 990.523 300 985V795Z" fill="#112233"/>
</svg>
